<?xml version="1.0" encoding="utf-8"?>
<!-- Generator: Adobe Illustrator 22.1.0, SVG Export Plug-In . SVG Version: 6.00 Build 0)  -->
<svg version="1.1" id="Capa_1" xmlns="http://www.w3.org/2000/svg" xmlns:xlink="http://www.w3.org/1999/xlink" x="0px" y="0px"
	 viewBox="0 0 438.5 438.5" style="enable-background:new 0 0 438.5 438.5;" xml:space="preserve">
<style type="text/css">
	.st0{display:none;fill:url(#SVGID_1_);stroke:#000000;stroke-width:0.25;stroke-miterlimit:10;}
	.st1{fill:#140D00;}
</style>
<linearGradient id="SVGID_1_" gradientUnits="userSpaceOnUse" x1="181.7416" y1="219.242" x2="256.7416" y2="219.242">
	<stop  offset="0" style="stop-color:#000000"/>
	<stop  offset="0.25" style="stop-color:#402020"/>
	<stop  offset="0.3057" style="stop-color:#432322"/>
	<stop  offset="0.3504" style="stop-color:#4D2D2A"/>
	<stop  offset="0.3913" style="stop-color:#5D3E37"/>
	<stop  offset="0.43" style="stop-color:#745649"/>
	<stop  offset="0.4667" style="stop-color:#917460"/>
	<stop  offset="0.5" style="stop-color:#B3977B"/>
	<stop  offset="0.5333" style="stop-color:#917460"/>
	<stop  offset="0.57" style="stop-color:#745649"/>
	<stop  offset="0.6087" style="stop-color:#5D3E37"/>
	<stop  offset="0.6496" style="stop-color:#4D2D2A"/>
	<stop  offset="0.6943" style="stop-color:#432322"/>
	<stop  offset="0.75" style="stop-color:#402020"/>
	<stop  offset="0.7887" style="stop-color:#3B1D1D"/>
	<stop  offset="0.8366" style="stop-color:#2C1616"/>
	<stop  offset="0.889" style="stop-color:#130909"/>
	<stop  offset="0.9204" style="stop-color:#000000"/>
</linearGradient>
<rect x="181.7" y="181.7" class="st0" width="75" height="75"/>
<g>
	
		<image style="display:none;overflow:visible;" width="800" height="608" xlink:href="E4AFE3A5.jpg"  transform="matrix(-6.250000e-02 0 0 8.223684e-02 244.2416 193.871)">
	</image>
	<path class="st1" d="M204.7,243.7c0.1,0.1,0.3,0.2,0.5,0.2h0.7c0.2,0,0.5-0.1,0.6-0.3c0.4-0.4,0.3-0.9-0.1-1.3
		c-3.7-3.5-5-7.8-3.4-11.7c1.9-4.6,7.2-7.7,13.5-7.7v10.3c0,0.2,0.1,0.4,0.2,0.5c0.3,0.4,0.8,0.5,1.2,0.2l26-19.2
		c0.1-0.1,0.1-0.1,0.2-0.2c0.3-0.4,0.2-1-0.2-1.3l-26-19.3c-0.2-0.1-0.4-0.2-0.5-0.2c-0.5,0-0.9,0.4-0.9,0.9v10.4
		c-10.2,0.2-18.7,6.2-21.4,15.1C192.4,228.8,196.1,237.9,204.7,243.7z"/>
</g>
</svg>
